<?xml version="1.0" encoding="utf-8"?>
<!-- Generator: Adobe Illustrator 24.1.1, SVG Export Plug-In . SVG Version: 6.00 Build 0)  -->
<svg version="1.1" id="logo-73" xmlns="http://www.w3.org/2000/svg" xmlns:xlink="http://www.w3.org/1999/xlink" x="0px" y="0px"
	 viewBox="0 0 60 40" style="enable-background:new 0 0 60 40;" xml:space="preserve">
<style type="text/css">
	.st0{fill:#212326;}
	.st1{fill:#FFFFFF;}
</style>
<path class="st0" d="M56.3,1.3c0,0.7,0.6,1.3,1.3,1.3h1.3c0.7,0,1.3-0.6,1.3-1.3C60,0.6,59.4,0,58.8,0h-1.3
	C56.8,0,56.3,0.6,56.3,1.3z"/>
<path class="st1" d="M20,40h6.1l-1.8-1.8c-0.5-0.5-1.1-0.7-1.8-0.7H20c-9.7,0-17.5-7.8-17.5-17.5S10.3,2.5,20,2.5h20
	c9.7,0,17.5,7.8,17.5,17.5S49.7,37.5,40,37.5h-7.5c-1,0-1.9-0.4-2.7-1.1l-2.1-2.1c-1.2-1.2-2.8-1.8-4.4-1.8H20
	c-6.9,0-12.5-5.6-12.5-12.5S13.1,7.5,20,7.5h20c6.9,0,12.5,5.6,12.5,12.5S46.9,32.5,40,32.5h-4.8c-1,0-1.9-0.4-2.7-1.1l-2.1-2.1
	c-1.2-1.2-2.8-1.8-4.4-1.8H20c-4.1,0-7.5-3.4-7.5-7.5s3.4-7.5,7.5-7.5h20c4.1,0,7.5,3.4,7.5,7.5c0,4.1-3.3,7.4-7.3,7.5l0,0h-1.8
	c-1,0-1.9-0.4-2.7-1.1l-2.1-2.1c-1-1-2.2-1.6-3.5-1.8L30,22.5H20c-1.4,0-2.5-1.1-2.5-2.5s1.1-2.5,2.5-2.5h20c1.4,0,2.5,1.1,2.5,2.5
	s-1.1,2.5-2.5,2.5h-5l1.8,1.8c0.5,0.5,1.1,0.7,1.8,0.7H40c2.8,0,5-2.2,5-5s-2.2-5-5-5H20c-2.8,0-5,2.2-5,5s2.2,5,5,5h9.2
	c1,0,1.9,0.4,2.7,1.1l2.1,2.1c1.2,1.2,2.8,1.8,4.4,1.8h2.3v0c5.2-0.3,9.4-4.7,9.4-10c0-5.5-4.5-10-10-10H20c-5.5,0-10,4.5-10,10
	c0,5.5,4.5,10,10,10h6.1c1,0,1.9,0.4,2.7,1.1l2.1,2.1c1.2,1.2,2.8,1.8,4.4,1.8H40c8.3,0,15-6.7,15-15S48.3,5,40,5H20
	C11.7,5,5,11.7,5,20s6.7,15,15,15h3.4c1,0,1.9,0.4,2.7,1.1l2.1,2.1c1.2,1.2,2.8,1.8,4.4,1.8H40c11,0,20-9,20-20S51,0,40,0L20,0
	C9,0,0,9,0,20S9,40,20,40z"/>
</svg>
