<?xml version="1.0" encoding="utf-8"?>
<!-- Generator: Adobe Illustrator 24.1.1, SVG Export Plug-In . SVG Version: 6.00 Build 0)  -->
<svg version="1.1" id="logo-65" xmlns="http://www.w3.org/2000/svg" xmlns:xlink="http://www.w3.org/1999/xlink" x="0px" y="0px"
	 viewBox="0 0 80 80" style="enable-background:new 0 0 80 80;" xml:space="preserve">
<style type="text/css">
	.st0{opacity:0.1;fill:none;stroke:#FFFFFF;stroke-width:0.896;stroke-miterlimit:16;enable-background:new    ;}
	.st1{opacity:0.18;fill:none;stroke:#FFFFFF;stroke-width:0.896;stroke-miterlimit:16;enable-background:new    ;}
	.st2{opacity:0.26;fill:none;stroke:#FFFFFF;stroke-width:0.896;stroke-miterlimit:16;enable-background:new    ;}
	.st3{opacity:0.35;fill:none;stroke:#FFFFFF;stroke-width:0.896;stroke-miterlimit:16;enable-background:new    ;}
	.st4{opacity:0.43;fill:none;stroke:#FFFFFF;stroke-width:0.896;stroke-miterlimit:16;enable-background:new    ;}
	.st5{opacity:0.51;fill:none;stroke:#FFFFFF;stroke-width:0.896;stroke-miterlimit:16;enable-background:new    ;}
	.st6{opacity:0.59;fill:none;stroke:#FFFFFF;stroke-width:0.896;stroke-miterlimit:16;enable-background:new    ;}
	.st7{opacity:0.67;fill:none;stroke:#FFFFFF;stroke-width:0.896;stroke-miterlimit:16;enable-background:new    ;}
	.st8{opacity:0.75;fill:none;stroke:#FFFFFF;stroke-width:0.896;stroke-miterlimit:16;enable-background:new    ;}
	.st9{opacity:0.84;fill:none;stroke:#FFFFFF;stroke-width:0.896;stroke-miterlimit:16;enable-background:new    ;}
	.st10{opacity:0.92;fill:none;stroke:#FFFFFF;stroke-width:0.896;stroke-miterlimit:16;enable-background:new    ;}
	.st11{fill:none;stroke:#FFFFFF;stroke-width:0.896;stroke-miterlimit:16;}
</style>
<path class="st0" d="M77.8,40.3c0-2.7-2.2-4.9-4.9-4.9S68,37.6,68,40.3s2.2,4.9,4.9,4.9S77.8,43,77.8,40.3z"/>
<path class="st1" d="M68.9,33.4L68.9,33.4c-3.9,0-7,3.1-7,6.9v0c0,3.8,3.1,6.9,6.9,6.9h0c3.8,0,6.9-3.1,6.9-6.9v0
	C75.9,36.5,72.8,33.4,68.9,33.4z"/>
<path class="st2" d="M74,40.3c0-5-4-9-9-9s-9,4-9,9s4,9,9,9S74,45.3,74,40.3z"/>
<path class="st3" d="M72.1,40.3c0-6.1-4.9-11-11-11c-6.1,0-11,4.9-11,11c0,6.1,4.9,11,11,11C67.1,51.4,72.1,46.4,72.1,40.3z"/>
<path class="st4" d="M70.2,40.3c0-7.2-5.8-13.1-13.1-13.1c-7.2,0-13.1,5.8-13.1,13.1c0,7.2,5.8,13.1,13.1,13.1
	C64.3,53.4,70.2,47.5,70.2,40.3z"/>
<path class="st5" d="M68.3,40.3c0-8.3-6.8-15.1-15.1-15.1c-8.3,0-15.1,6.8-15.1,15.1c0,8.3,6.8,15.1,15.1,15.1
	C61.5,55.4,68.3,48.7,68.3,40.3z"/>
<path class="st6" d="M49.2,23.2L49.2,23.2c-9.5,0-17.1,7.7-17.1,17.1v0c0,9.5,7.7,17.1,17.1,17.1h0c9.5,0,17.1-7.7,17.1-17.1v0
	C66.4,30.9,58.7,23.2,49.2,23.2z"/>
<path class="st7" d="M45.3,21.2L45.3,21.2c-10.6,0-19.2,8.6-19.2,19.2v0c0,10.6,8.6,19.2,19.2,19.2h0c10.6,0,19.2-8.6,19.2-19.2v0
	C64.4,29.7,55.9,21.2,45.3,21.2z"/>
<path class="st8" d="M62.5,40.3c0-11.7-9.5-21.2-21.2-21.2s-21.2,9.5-21.2,21.2c0,11.7,9.5,21.2,21.2,21.2S62.5,52,62.5,40.3z"/>
<path class="st9" d="M60.6,40.3c0-12.8-10.4-23.2-23.2-23.2S14.2,27.5,14.2,40.3c0,12.8,10.4,23.2,23.2,23.2S60.6,53.2,60.6,40.3z"
	/>
<path class="st10" d="M58.7,40.3c0-14-11.3-25.3-25.3-25.3S8.2,26.4,8.2,40.3s11.3,25.3,25.3,25.3S58.7,54.3,58.7,40.3z"/>
<path class="st11" d="M56.8,40.3C56.8,25.2,44.6,13,29.5,13C14.4,13,2.2,25.2,2.2,40.3s12.2,27.3,27.3,27.3
	C44.6,67.6,56.8,55.4,56.8,40.3z"/>
</svg>
